<?xml version="1.0" encoding="UTF-8"?>
<svg width="127px" height="42px" viewBox="0 0 127 42" version="1.1" xmlns="http://www.w3.org/2000/svg" xmlns:xlink="http://www.w3.org/1999/xlink">
    <!-- Generator: Sketch 43.1 (39012) - http://www.bohemiancoding.com/sketch -->
    <title>деньгоград</title>
    <desc>Created with Sketch.</desc>
    <defs></defs>
    <g id="Page-1" stroke="none" stroke-width="1" fill="none" fill-rule="evenodd">
        <g id="1280px" transform="translate(-169.000000, -15.000000)" fill-rule="nonzero" fill="#FFFFFF">
            <g id="head">
                <g id="деньгоград" transform="translate(169.000000, 15.000000)">
                    <g id="Group" transform="translate(0.000000, 22.000000)">
                        <path d="M0.692113425,11.4035088 L2.7684537,11.4035088 L7.95930439,0.175438596 L10.7277581,0.175438596 L15.9186088,11.4035088 L17.994949,11.4035088 L17.994949,17.1929825 L14.5343819,17.1929825 L14.5343819,14.5614035 L4.32570891,14.5614035 L4.32570891,17.1929825 L0.865141781,17.1929825 L0.865141781,11.4035088 L0.692113425,11.4035088 Z M6.92113425,11.4035088 L11.9389566,11.4035088 L9.51655959,5.26315789 L6.92113425,11.4035088 Z" id="Shape"></path>
                        <path d="M30.2799623,10.3508772 L23.0127714,10.3508772 C23.0127714,10.7017544 23.1857997,11.0526316 23.3588281,11.2280702 C23.5318564,11.4035088 23.7048848,11.754386 24.0509415,11.9298246 C24.3969982,12.1052632 24.5700266,12.2807018 24.9160833,12.4561404 C25.26214,12.6315789 25.6081967,12.6315789 25.9542534,12.6315789 C26.6463669,12.6315789 27.3384803,12.4561404 28.0305937,12.2807018 C28.7227071,12.1052632 29.4148206,11.754386 30.106934,11.5789474 L30.106934,13.8596491 C29.9339056,13.8596491 29.7608773,14.0350877 29.5878489,14.2105263 C29.4148206,14.3859649 29.0687638,14.3859649 28.5496788,14.5614035 C28.0305937,14.7368421 27.684537,14.7368421 27.1654519,14.9122807 C26.6463669,15.0877193 25.9542534,15.0877193 25.26214,15.0877193 C24.2239699,15.0877193 23.3588281,14.9122807 22.6667147,14.7368421 C21.9746012,14.5614035 21.2824878,14.0350877 20.7634027,13.5087719 C20.2443177,12.9824561 19.898261,12.4561404 19.7252326,11.754386 C19.5522043,11.0526316 19.3791759,10.3508772 19.3791759,9.64912281 C19.3791759,8.94736842 19.5522043,8.24561404 19.7252326,7.54385965 C19.898261,6.84210526 20.417346,6.31578947 20.7634027,5.78947368 C21.1094595,5.26315789 21.8015729,4.9122807 22.6667147,4.73684211 C23.5318564,4.56140351 24.2239699,4.38596491 25.26214,4.38596491 C25.7812251,4.38596491 26.4733385,4.56140351 26.9924236,4.73684211 C27.5115086,4.9122807 28.2036221,5.26315789 28.7227071,5.61403509 C29.2417922,5.96491228 29.5878489,6.66666667 29.9339056,7.36842105 C30.2799623,8.07017544 30.4529907,8.94736842 30.4529907,10 L30.4529907,10.3508772 L30.2799623,10.3508772 Z M26.8193952,8.42105263 C26.8193952,8.07017544 26.8193952,7.71929825 26.6463669,7.54385965 C26.4733385,7.36842105 26.4733385,7.01754386 26.3003101,6.84210526 C26.1272818,6.66666667 25.9542534,6.49122807 25.7812251,6.31578947 C25.6081967,6.14035088 25.26214,6.14035088 24.9160833,6.14035088 C24.5700266,6.14035088 24.3969982,6.14035088 24.0509415,6.31578947 C23.7048848,6.49122807 23.5318564,6.49122807 23.3588281,6.84210526 C23.1857997,7.19298246 23.0127714,7.19298246 23.0127714,7.54385965 C23.0127714,7.89473684 22.839743,8.07017544 22.839743,8.42105263 L26.8193952,8.42105263 Z" id="Shape"></path>
                        <polygon id="Shape" points="39.6234936 7.71929825 39.6234936 4.21052632 43.2570891 4.21052632 43.2570891 14.7368421 39.6234936 14.7368421 39.6234936 10.5263158 35.8168697 10.5263158 35.8168697 14.5614035 32.1832743 14.5614035 32.1832743 4.03508772 35.8168697 4.03508772 35.8168697 7.54385965 39.6234936 7.54385965"></polygon>
                        <path d="M51.3894218,7.71929825 C52.0815352,7.71929825 52.6006203,7.71929825 53.1197054,7.89473684 C53.6387904,8.07017544 54.1578755,8.24561404 54.5039322,8.59649123 C54.8499889,8.94736842 55.1960456,9.29824561 55.369074,9.64912281 C55.5421023,10 55.7151307,10.5263158 55.7151307,11.2280702 C55.7151307,11.5789474 55.7151307,12.1052632 55.5421023,12.4561404 C55.369074,12.8070175 55.1960456,13.3333333 54.8499889,13.5087719 C54.5039322,13.6842105 53.9848471,14.0350877 53.4657621,14.2105263 C52.946677,14.3859649 52.2545636,14.5614035 51.3894218,14.5614035 L46.0255428,14.5614035 L46.0255428,4.03508772 L49.6591382,4.03508772 L49.6591382,7.54385965 L51.3894218,7.54385965 L51.3894218,7.71929825 Z M49.4861099,12.4561404 L50.3512517,12.4561404 C50.6973084,12.4561404 50.8703367,12.4561404 51.0433651,12.2807018 C51.2163934,12.1052632 51.3894218,12.1052632 51.5624502,12.1052632 C51.7354785,12.1052632 51.7354785,11.9298246 51.7354785,11.754386 L51.7354785,11.2280702 C51.7354785,10.877193 51.5624502,10.5263158 51.3894218,10.3508772 C51.2163934,10.1754386 50.8703367,10 50.3512517,10 L49.3130815,10 L49.3130815,12.4561404 L49.4861099,12.4561404 Z" id="Shape"></path>
                        <polygon id="Shape" points="65.0586619 7.01754386 61.2520381 7.01754386 61.2520381 14.5614035 57.6184426 14.5614035 57.6184426 4.03508772 65.0586619 4.03508772 65.0586619 7.01754386"></polygon>
                        <path d="M72.3258529,4.03508772 C73.364023,4.03508772 74.2291648,4.21052632 74.9212782,4.38596491 C75.6133917,4.56140351 76.3055051,5.0877193 76.8245902,5.61403509 C77.3436752,6.14035088 77.6897319,6.66666667 77.8627603,7.36842105 C78.0357887,8.07017544 78.208817,8.77192982 78.208817,9.47368421 C78.208817,10.1754386 78.0357887,10.877193 77.8627603,11.5789474 C77.6897319,12.2807018 77.1706469,12.8070175 76.8245902,13.3333333 C76.4785335,13.8596491 75.78642,14.2105263 74.9212782,14.5614035 C74.0561365,14.9122807 73.364023,14.9122807 72.3258529,14.9122807 C71.2876828,14.9122807 70.422541,14.7368421 69.7304276,14.5614035 C69.0383141,14.3859649 68.3462007,13.8596491 67.8271156,13.3333333 C67.3080306,12.8070175 66.9619739,12.2807018 66.7889455,11.5789474 C66.6159171,10.877193 66.4428888,10.1754386 66.4428888,9.47368421 C66.4428888,8.77192982 66.6159171,8.07017544 66.7889455,7.36842105 C66.9619739,6.66666667 67.4810589,6.14035088 67.8271156,5.61403509 C68.1731724,5.0877193 68.8652858,4.73684211 69.7304276,4.38596491 C70.5955693,4.03508772 71.2876828,4.03508772 72.3258529,4.03508772 Z M72.3258529,6.66666667 C71.9797962,6.66666667 71.6337395,6.66666667 71.4607111,6.84210526 C71.2876828,7.01754386 70.9416261,7.19298246 70.7685977,7.36842105 C70.5955693,7.54385965 70.422541,7.89473684 70.422541,8.24561404 C70.422541,8.59649123 70.2495126,8.94736842 70.2495126,9.29824561 C70.2495126,9.64912281 70.2495126,10 70.422541,10.3508772 C70.5955693,10.7017544 70.5955693,10.877193 70.7685977,11.2280702 C70.9416261,11.5789474 71.1146544,11.5789474 71.4607111,11.754386 C71.8067678,11.9298246 71.9797962,11.9298246 72.3258529,11.9298246 C72.6719096,11.9298246 73.0179663,11.9298246 73.1909947,11.754386 C73.364023,11.5789474 73.7100798,11.4035088 73.8831081,11.2280702 C74.0561365,11.0526316 74.2291648,10.7017544 74.2291648,10.3508772 C74.2291648,10 74.4021932,9.64912281 74.4021932,9.29824561 C74.4021932,8.94736842 74.4021932,8.59649123 74.2291648,8.24561404 C74.0561365,7.89473684 74.0561365,7.71929825 73.8831081,7.36842105 C73.7100798,7.01754386 73.5370514,7.01754386 73.1909947,7.01754386 C72.844938,7.01754386 72.6719096,6.66666667 72.3258529,6.66666667 Z" id="Shape"></path>
                        <polygon id="Shape" points="87.7253766 7.01754386 83.9187528 7.01754386 83.9187528 14.5614035 80.2851573 14.5614035 80.2851573 4.03508772 87.7253766 4.03508772"></polygon>
                        <path d="M93.0892556,4.21052632 L93.0892556,5.0877193 C93.262284,4.9122807 93.262284,4.9122807 93.4353124,4.73684211 C93.6083407,4.56140351 93.7813691,4.56140351 93.9543974,4.38596491 C94.1274258,4.21052632 94.4734825,4.21052632 94.8195392,4.03508772 C95.1655959,3.85964912 95.5116526,3.85964912 96.0307377,3.85964912 C96.3767944,3.85964912 96.7228511,3.85964912 97.0689078,4.03508772 C97.4149646,4.21052632 97.7610213,4.21052632 98.107078,4.38596491 C98.4531347,4.56140351 98.7991914,4.73684211 99.1452481,5.0877193 C99.4913048,5.43859649 99.6643332,5.78947368 100.01039,6.14035088 C100.356447,6.49122807 100.356447,7.01754386 100.529475,7.54385965 C100.702503,8.07017544 100.702503,8.59649123 100.702503,9.29824561 C100.702503,9.8245614 100.702503,10.1754386 100.529475,10.7017544 C100.356447,11.2280702 100.356447,11.5789474 100.183418,11.9298246 C100.01039,12.2807018 99.8373615,12.6315789 99.4913048,12.9824561 C99.1452481,13.3333333 98.9722198,13.6842105 98.626163,14.0350877 C98.2801063,14.3859649 97.7610213,14.5614035 97.4149646,14.5614035 C97.0689078,14.5614035 96.3767944,14.7368421 95.8577093,14.7368421 L94.8195392,14.7368421 C94.4734825,14.7368421 94.3004541,14.5614035 94.1274258,14.5614035 C93.9543974,14.5614035 93.7813691,14.3859649 93.6083407,14.3859649 C93.4353124,14.3859649 93.262284,14.0350877 93.0892556,14.0350877 L93.0892556,19.4736842 L89.4556602,19.4736842 L89.4556602,4.21052632 L93.0892556,4.21052632 L93.0892556,4.21052632 Z M93.0892556,11.5789474 C93.4353124,11.754386 93.6083407,11.9298246 93.9543974,12.1052632 C94.3004541,12.2807018 94.6465109,12.2807018 94.9925676,12.2807018 C95.3386243,12.2807018 95.5116526,12.2807018 95.8577093,12.1052632 C96.2037661,11.9298246 96.3767944,11.754386 96.5498228,11.5789474 C96.7228511,11.4035088 96.8958795,11.0526316 96.8958795,10.7017544 C96.8958795,10.3508772 97.0689078,10 97.0689078,9.47368421 C97.0689078,8.94736842 97.0689078,8.59649123 96.8958795,8.24561404 C96.7228511,7.89473684 96.5498228,7.71929825 96.3767944,7.36842105 C96.2037661,7.01754386 96.0307377,7.01754386 95.684681,7.01754386 C95.3386243,7.01754386 95.1655959,6.84210526 94.9925676,6.84210526 L94.3004541,6.84210526 C94.1274258,6.84210526 93.9543974,7.01754386 93.7813691,7.01754386 C93.6083407,7.01754386 93.4353124,7.19298246 93.4353124,7.19298246 L93.262284,7.36842105 L93.262284,11.5789474 L93.0892556,11.5789474 Z" id="Shape"></path>
                        <path d="M102.778844,5.43859649 C103.470957,4.9122807 104.16307,4.56140351 105.028212,4.38596491 C105.893354,4.21052632 106.758496,4.03508772 107.623638,4.03508772 C108.315751,4.03508772 109.007864,4.03508772 109.699978,4.21052632 C110.392091,4.38596491 110.738148,4.56140351 111.084205,4.9122807 C111.430261,5.26315789 111.776318,5.61403509 111.949346,5.96491228 C112.122375,6.31578947 112.295403,6.84210526 112.295403,7.36842105 L112.295403,11.4035088 C112.295403,11.754386 112.295403,12.1052632 112.468432,12.2807018 C112.64146,12.4561404 112.64146,12.6315789 112.814488,12.6315789 L113.160545,12.6315789 L113.506602,12.6315789 C113.67963,12.6315789 113.67963,12.6315789 113.67963,12.4561404 C113.67963,12.2807018 113.852658,12.4561404 113.852658,12.4561404 L113.852658,14.0350877 C113.67963,14.0350877 113.506602,14.2105263 113.333573,14.2105263 C113.160545,14.2105263 112.814488,14.3859649 112.64146,14.3859649 C112.468432,14.3859649 112.122375,14.5614035 111.776318,14.5614035 L110.738148,14.5614035 C110.392091,14.5614035 110.046035,14.5614035 109.873006,14.3859649 C109.699978,14.2105263 109.526949,14.2105263 109.353921,14.0350877 C109.180893,13.8596491 109.180893,13.8596491 109.007864,13.6842105 C108.834836,13.5087719 108.834836,13.5087719 108.834836,13.3333333 C108.661808,13.5087719 108.488779,13.5087719 108.315751,13.6842105 C108.142723,13.8596491 107.969694,13.8596491 107.623638,14.0350877 C107.277581,14.2105263 107.104553,14.2105263 106.758496,14.3859649 C106.412439,14.5614035 106.066382,14.5614035 105.547297,14.5614035 C104.855184,14.5614035 104.509127,14.5614035 103.990042,14.3859649 C103.470957,14.2105263 103.297929,14.0350877 103.1249,13.6842105 C102.951872,13.3333333 102.778844,13.1578947 102.605815,12.8070175 C102.432787,12.4561404 102.432787,12.2807018 102.432787,11.9298246 C102.432787,11.4035088 102.605815,11.0526316 102.778844,10.7017544 C102.951872,10.3508772 103.297929,10 103.643985,9.8245614 C103.990042,9.64912281 104.336099,9.29824561 104.855184,9.12280702 C105.374269,8.94736842 105.893354,8.77192982 106.412439,8.59649123 C106.758496,8.42105263 107.104553,8.42105263 107.277581,8.24561404 C107.450609,8.07017544 107.623638,8.07017544 107.796666,8.07017544 C107.969694,8.07017544 107.969694,7.89473684 108.142723,7.89473684 C108.315751,7.89473684 108.315751,7.89473684 108.488779,7.71929825 L108.488779,7.19298246 C108.488779,7.01754386 108.315751,6.84210526 108.315751,6.66666667 C108.315751,6.49122807 107.969694,6.31578947 107.796666,6.31578947 C107.623638,6.31578947 107.277581,6.14035088 106.931524,6.14035088 C106.412439,6.14035088 106.066382,6.14035088 105.720326,6.31578947 C105.374269,6.49122807 105.028212,6.49122807 104.682156,6.84210526 C104.336099,7.19298246 103.990042,7.19298246 103.643985,7.36842105 C103.297929,7.54385965 103.1249,7.89473684 102.778844,8.07017544 L102.778844,5.43859649 L102.778844,5.43859649 Z M108.488779,9.64912281 C108.142723,9.8245614 107.796666,10 107.450609,10 C107.104553,10 106.931524,10.3508772 106.585467,10.5263158 C106.239411,10.7017544 106.239411,10.877193 106.066382,11.0526316 C105.893354,11.2280702 105.893354,11.4035088 105.893354,11.754386 L105.893354,12.2807018 C105.893354,12.4561404 106.066382,12.4561404 106.066382,12.6315789 C106.066382,12.8070175 106.239411,12.8070175 106.412439,12.8070175 L106.758496,12.8070175 L107.277581,12.8070175 C107.450609,12.8070175 107.623638,12.6315789 107.623638,12.6315789 C107.623638,12.6315789 107.796666,12.4561404 107.969694,12.4561404 C108.142723,12.4561404 108.142723,12.2807018 108.315751,12.2807018 L108.315751,9.64912281 L108.488779,9.64912281 Z" id="Shape"></path>
                        <path d="M117.313226,14.5614035 L117.313226,16.6666667 L113.852658,16.6666667 L113.852658,11.754386 L115.236885,11.754386 L118.870481,4.03508772 L121.811963,4.03508772 L125.445558,11.754386 L126.829785,11.754386 L126.829785,16.6666667 L123.369218,16.6666667 L123.369218,14.5614035 L117.313226,14.5614035 Z M119.043509,11.9298246 L122.158019,11.9298246 L120.600764,8.07017544 L119.043509,11.9298246 Z" id="Shape"></path>
                    </g>
                    <g id="Group" transform="translate(42.000000, 0.000000)">
                        <path d="M25.0555556,6.9 C24.7051282,6.9 24.5299145,7.25384615 24.5299145,7.60769231 L24.5299145,10.0846154 C24.5299145,10.4384615 24.8803419,10.7923077 25.2307692,10.7923077 C25.5811966,10.7923077 25.9316239,10.4384615 25.9316239,10.0846154 L25.9316239,8.49230769 L33.465812,8.49230769 L33.465812,17.6923077 C33.465812,18.0461538 33.6410256,18.2230769 33.991453,18.4 L39.4230769,20.5230769 L39.4230769,22.1153846 C39.4230769,22.4692308 39.7735043,22.8230769 40.1239316,22.8230769 C40.474359,22.8230769 40.8247863,22.4692308 40.8247863,22.1153846 L40.8247863,19.9923077 C40.8247863,19.6384615 40.6495726,19.4615385 40.2991453,19.2846154 L34.8675214,17.1615385 L34.8675214,7.60769231 C34.8675214,7.25384615 34.517094,6.9 34.1666667,6.9 L25.0555556,6.9 Z" id="Shape"></path>
                        <path d="M31.1880342,22.8230769 C31.5384615,22.8230769 31.8888889,22.4692308 31.8888889,22.1153846 L31.8888889,14.6846154 C31.8888889,14.3307692 31.7136752,13.9769231 31.3632479,13.9769231 L19.4487179,10.9692308 C19.2735043,10.9692308 18.9230769,10.9692308 18.7478632,11.1461538 C18.5726496,11.3230769 18.3974359,11.5 18.3974359,11.6769231 L18.3974359,22.1153846 C18.3974359,22.4692308 18.7478632,22.8230769 19.0982906,22.8230769 C19.4487179,22.8230769 19.7991453,22.4692308 19.7991453,22.1153846 L19.7991453,12.7384615 L30.3119658,15.3923077 L30.3119658,22.1153846 C30.4871795,22.4692308 30.8376068,22.8230769 31.1880342,22.8230769 Z" id="Shape"></path>
                        <path d="M1.22649573,22.8230769 C1.57692308,22.8230769 1.92735043,22.4692308 1.92735043,22.1153846 L1.92735043,19.9923077 L9.46153846,19.9923077 L9.46153846,22.1153846 C9.46153846,22.4692308 9.81196581,22.8230769 10.1623932,22.8230769 C10.5128205,22.8230769 10.8632479,22.4692308 10.8632479,22.1153846 L10.8632479,19.2846154 C10.8632479,18.9307692 10.5128205,18.5769231 10.1623932,18.5769231 L1.22649573,18.5769231 C0.876068376,18.5769231 0.525641026,18.9307692 0.525641026,19.2846154 L0.525641026,22.1153846 C0.525641026,22.4692308 0.876068376,22.8230769 1.22649573,22.8230769 Z" id="Shape"></path>
                        <path d="M14.017094,0.884615385 L9.98717949,3.00769231 C9.81196581,3.18461538 9.63675214,3.36153846 9.63675214,3.71538462 L9.63675214,8.31538462 L7.00854701,9.55384615 C6.83333333,9.73076923 6.65811966,9.90769231 6.65811966,10.2615385 L6.65811966,16.2769231 C6.65811966,16.6307692 7.00854701,16.9846154 7.35897436,16.9846154 C7.70940171,16.9846154 8.05982906,16.6307692 8.05982906,16.2769231 L8.05982906,10.6153846 L10.6880342,9.37692308 C10.8632479,9.2 11.0384615,9.02307692 11.0384615,8.66923077 L11.0384615,4.06923077 L14.7179487,2.12307692 L18.3974359,4.06923077 L18.3974359,8.66923077 C18.3974359,9.02307692 18.7478632,9.37692308 19.0982906,9.37692308 C19.4487179,9.37692308 19.7991453,9.02307692 19.7991453,8.66923077 L19.7991453,3.53846154 C19.7991453,3.18461538 19.6239316,3.00769231 19.4487179,2.83076923 L15.4188034,0.707692308 L14.7179487,0.353846154 L14.017094,0.884615385 Z" id="Shape"></path>
                    </g>
                </g>
            </g>
        </g>
    </g>
</svg>