<svg id="SvgjsSvg1010" xmlns="http://www.w3.org/2000/svg" version="1.1" xmlns:xlink="http://www.w3.org/1999/xlink" xmlns:svgjs="http://svgjs.com/svgjs" width="22" height="22" viewBox="0 0 22 22"><title>Rectangle 5 Copy</title><desc>Created with Avocode.</desc><defs id="SvgjsDefs1011"><linearGradient id="SvgjsLinearGradient1013" gradientUnits="userSpaceOnUse" x1="968" y1="25" x2="968" y2="47"><stop id="SvgjsStop1014" stop-opacity="1" stop-color="#1ea0c4" offset="0"></stop><stop id="SvgjsStop1015" stop-opacity="1" stop-color="#43afcf" offset="1"></stop></linearGradient></defs><path id="SvgjsPath1012" d="M957 29C957 26.79086 958.79086 25 961 25H975C977.20914 25 979 26.79086 979 29V43C979 45.20914 977.20914 47 975 47H961C958.79086 47 957 45.20914 957 43Z " fill="url(#SvgjsLinearGradient1013)" transform="matrix(1,0,0,1,-957,-25)"></path><path id="SvgjsPath1016" d="M967.95 36C967.97 36 967.98 36 968 36C968 36 968.01 36 968.02 36H968.04C968.89 35.99 969.5699999999999 35.71 970.0699999999999 35.18C971.18 34.01 970.9999999999999 32.01 970.9799999999999 31.82C970.8999999999999 30.39 970.18 29.7 969.5799999999999 29.38C969.1399999999999 29.14 968.6099999999999 29.009999999999998 968.03 29H967.98C967.66 29 967.04 29.05 966.44 29.37C965.83 29.69 965.1 30.37 965.0200000000001 31.82C965.0000000000001 32.01 964.82 34.01 965.9300000000001 35.18C966.4300000000001 35.71 967.11 35.99 967.95 36ZM965.79 31.89C965.79 31.88 965.79 31.87 965.79 31.87C965.89 29.94 967.3499999999999 29.73 967.98 29.73H967.99C968 29.73 968.01 29.73 968.02 29.73C968.79 29.75 970.11 30.04 970.1999999999999 31.87C970.1999999999999 31.87 970.1999999999999 31.880000000000003 970.2099999999999 31.89C970.2099999999999 31.91 970.41 33.730000000000004 969.4899999999999 34.7C969.1299999999999 35.080000000000005 968.6499999999999 35.27 968.0099999999999 35.27H967.9999999999999C967.9899999999999 35.27 967.9899999999999 35.27 967.9799999999999 35.27C967.3499999999999 35.27 966.8599999999999 35.080000000000005 966.5099999999999 34.7C965.5899999999999 33.74 965.7899999999998 31.900000000000002 965.7899999999998 31.890000000000004Z " fill="#ffffff" fill-opacity="1" transform="matrix(1,0,0,1,-957,-25)"></path><path id="SvgjsPath1017" d="M974 39.89C974 39.89 974 39.89 974 39.88C974 39.86 974 39.830000000000005 974 39.800000000000004C973.98 39.18000000000001 973.94 37.74 972.67 37.27C972.66 37.27 972.65 37.27 972.64 37.260000000000005C971.33 36.900000000000006 970.23 36.09 970.22 36.080000000000005C970.0400000000001 35.95 969.8000000000001 35.99 969.6700000000001 36.18000000000001C969.5400000000001 36.370000000000005 969.59 36.64000000000001 969.7700000000001 36.77000000000001C969.82 36.81000000000001 970.9800000000001 37.68000000000001 972.4300000000001 38.08000000000001C973.11 38.34000000000001 973.19 39.12000000000001 973.21 39.83000000000001C973.21 39.860000000000014 973.21 39.88000000000001 973.21 39.91000000000001C973.22 40.19000000000001 973.2 40.62000000000001 973.1500000000001 40.87000000000001C972.6800000000001 41.16000000000001 970.82 42.16000000000001 968.0000000000001 42.16000000000001C965.1900000000002 42.16000000000001 963.3200000000002 41.16000000000001 962.8500000000001 40.87000000000001C962.8000000000002 40.62000000000001 962.7800000000001 40.19000000000001 962.7900000000002 39.90000000000001C962.7900000000002 39.88000000000001 962.7900000000002 39.850000000000016 962.7900000000002 39.83000000000001C962.8100000000002 39.110000000000014 962.8900000000002 38.33000000000001 963.5700000000002 38.070000000000014C965.0200000000002 37.670000000000016 966.1800000000002 36.80000000000001 966.2300000000001 36.77000000000002C966.4100000000001 36.63000000000002 966.4600000000002 36.37000000000002 966.3300000000002 36.180000000000014C966.2000000000002 35.990000000000016 965.9600000000002 35.94000000000001 965.7800000000002 36.08000000000001C965.7700000000002 36.09000000000001 964.6800000000002 36.90000000000001 963.3600000000002 37.26000000000001C963.3400000000003 37.26000000000001 963.3400000000003 37.27000000000001 963.3300000000003 37.27000000000001C962.0600000000003 37.74000000000001 962.0200000000003 39.18000000000001 962.0000000000002 39.80000000000001C962.0000000000002 39.83000000000001 962.0000000000002 39.85000000000001 962.0000000000002 39.88000000000001V39.89000000000001C962.0000000000002 40.050000000000004 961.9900000000002 40.89000000000001 962.1500000000002 41.31000000000001C962.1800000000002 41.39000000000001 962.2300000000002 41.46000000000001 962.3000000000002 41.50000000000001C962.3900000000002 41.57000000000001 964.4900000000002 43.00000000000001 968.0000000000002 43.00000000000001C971.5200000000002 43.00000000000001 973.6200000000002 41.56000000000001 973.7100000000003 41.50000000000001C973.7700000000002 41.46000000000001 973.8300000000003 41.39000000000001 973.8600000000002 41.31000000000001C974.0100000000002 40.89000000000001 974.0000000000002 40.05000000000001 974.0000000000002 39.89000000000001Z " fill="#ffffff" fill-opacity="1" transform="matrix(1,0,0,1,-957,-25)"></path></svg>